
<svg width="1440" height="320" viewBox="0 0 1440 320" xmlns="http://www.w3.org/2000/svg">
  <path fill="rgba(59, 130, 246, 0.08)" fill-opacity="1" d="M0,32L48,48C96,64,192,96,288,106.7C384,117,480,107,576,112C672,117,768,139,864,138.7C960,139,1056,117,1152,106.7C1248,96,1344,96,1392,96L1440,96L1440,320L1392,320C1344,320,1248,320,1152,320C1056,320,960,320,864,320C768,320,672,320,576,320C480,320,384,320,288,320C192,320,96,320,48,320L0,320Z"></path>
  <path fill="rgba(99, 102, 241, 0.05)" fill-opacity="1" d="M0,192L48,181.3C96,171,192,149,288,160C384,171,480,213,576,218.7C672,224,768,192,864,181.3C960,171,1056,181,1152,197.3C1248,213,1344,235,1392,245.3L1440,256L1440,320L1392,320C1344,320,1248,320,1152,320C1056,320,960,320,864,320C768,320,672,320,576,320C480,320,384,320,288,320C192,320,96,320,48,320L0,320Z"></path>
</svg>
